# xmcd CD database file
#
# Track frame offsets:
#	150
#	15033
#	37433
#	52182
#	71349
#	94576
#	115975
#	139284
#	160079
#	181162
#	209269
#	222868
#	240740
#	265254
#	285289
#	309241
#	324984
#
# Disc length: 4608 seconds
#
# Revision: 0
# Processed by: cddbd v1.5.2PL0 Copyright (c) Steve Scherf et al.
# Submitted via: CDex 1.51
#
DISCID=eb11fe11
DTITLE=Eric Clapton - Complete Clapton CD2
DYEAR=2007
DGENRE=Blues
TTITLE0=I've Got A Rock 'N' Roll Heart
TTITLE1=She's Waiting
TTITLE2=Forever Man
TTITLE3=It's In The Way That You Use It
TTITLE4=Miss You
TTITLE5=Pretending
TTITLE6=Bad Love
TTITLE7=Tears In Heaven
TTITLE8=Layla (Unplugged)
TTITLE9=Running On Faith (Unplugged)
TTITLE10=Motherless Child
TTITLE11=Change The World
TTITLE12=My Father's Eyes
TTITLE13=Riding With The King (With B.B. King)
TTITLE14=Sweet Home Chicago
TTITLE15=If I Had Possession Over Judgement Day
TTITLE16=Ride The River (With J.J. Cale)
EXTD=YEAR: 2007
EXTT0=
EXTT1=
EXTT2=
EXTT3=
EXTT4=
EXTT5=
EXTT6=
EXTT7=
EXTT8=
EXTT9=
EXTT10=
EXTT11=
EXTT12=
EXTT13=
EXTT14=
EXTT15=
EXTT16=
PLAYORDER=
